# xmcd
#
# Track frame offsets:
#	150
#	19128
#	35180
#	45632
#	64096
#
# Disc length: 1070 seconds
#
# Revision: 1
# Processed by: cddbd v1.5.1PL2 Copyright (c) Steve Scherf et al.
# Submitted via: audiograbber 1.83.01
#
DISCID=40042c05
DTITLE=The Wakefields - Falling Down Blue 
DYEAR=2004
DGENRE=Alt-Country
TTITLE0=What You Do
TTITLE1=Falling Down Blue
TTITLE2=Never Me
TTITLE3=And I Cry
TTITLE4=Why
EXTD=
EXTT0=
EXTT1=
EXTT2=
EXTT3=
EXTT4=
PLAYORDER=
